<svg xmlns="http://www.w3.org/2000/svg" xmlns:xlink="http://www.w3.org/1999/xlink" width="500" zoomAndPan="magnify" viewBox="0 0 375 374.999991" height="500" preserveAspectRatio="xMidYMid meet" version="1.0"><defs><g/><clipPath id="d9faf7fb8f"><path d="M 142.25 96.320312 L 233 96.320312 L 233 195.320312 L 142.25 195.320312 Z M 142.25 96.320312 " clip-rule="nonzero"/></clipPath><clipPath id="7aef11c61d"><path d="M 162 247 L 213 247 L 213 259 L 162 259 Z M 162 247 " clip-rule="nonzero"/></clipPath><clipPath id="c60b036913"><path d="M 187.5 227.136719 L 213.484375 253.121094 L 187.5 279.109375 L 161.515625 253.121094 Z M 187.5 227.136719 " clip-rule="nonzero"/></clipPath><clipPath id="a087b90de3"><path d="M 187.5 227.136719 L 213.484375 253.121094 L 187.5 279.109375 L 161.515625 253.121094 Z M 187.5 227.136719 " clip-rule="nonzero"/></clipPath><clipPath id="9ca5105543"><path d="M 187.5 227.136719 L 213.484375 253.121094 L 187.5 279.109375 L 161.515625 253.121094 Z M 187.5 227.136719 " clip-rule="nonzero"/></clipPath></defs><g clip-path="url(#d9faf7fb8f)"><path fill="#000000" d="M 231.902344 115.835938 L 217.183594 107.34375 C 217.460938 106.511719 217.644531 105.640625 217.644531 104.71875 C 217.644531 100.101562 213.886719 96.339844 209.265625 96.339844 C 204.648438 96.339844 200.886719 100.101562 200.886719 104.71875 C 200.886719 109.339844 204.648438 113.097656 209.265625 113.097656 C 211.757812 113.097656 213.976562 111.980469 215.511719 110.25 L 229.390625 118.253906 L 229.390625 141.457031 L 209.28125 153.058594 L 189.175781 141.457031 L 189.175781 117.292969 C 189.175781 116.691406 188.855469 116.140625 188.335938 115.839844 L 166.550781 103.269531 C 166.03125 102.972656 165.394531 102.972656 164.875 103.269531 L 143.089844 115.839844 C 142.570312 116.140625 142.253906 116.691406 142.253906 117.292969 L 142.253906 142.429688 C 142.253906 143.027344 142.570312 143.578125 143.089844 143.878906 L 164.035156 155.960938 L 164.035156 180.964844 C 164.035156 181.566406 164.351562 182.117188 164.871094 182.417969 L 186.65625 194.988281 C 186.917969 195.136719 187.207031 195.210938 187.496094 195.210938 C 187.785156 195.210938 188.074219 195.136719 188.332031 194.988281 L 203.539062 186.207031 C 205.039062 187.621094 207.046875 188.503906 209.265625 188.503906 C 213.886719 188.503906 217.644531 184.746094 217.644531 180.125 C 217.644531 175.503906 213.886719 171.746094 209.265625 171.746094 C 204.648438 171.746094 200.886719 175.503906 200.886719 180.125 C 200.886719 181.3125 201.144531 182.4375 201.589844 183.460938 L 187.496094 191.601562 L 167.386719 180 L 167.386719 155.964844 L 187.5 144.363281 L 208.441406 156.445312 C 208.703125 156.59375 208.992188 156.667969 209.28125 156.667969 C 209.570312 156.667969 209.859375 156.59375 210.117188 156.445312 L 231.902344 143.875 C 232.421875 143.574219 232.742188 143.023438 232.742188 142.421875 L 232.742188 117.285156 C 232.742188 116.6875 232.421875 116.136719 231.902344 115.835938 Z M 209.265625 109.746094 C 206.496094 109.746094 204.238281 107.492188 204.238281 104.71875 C 204.238281 101.945312 206.496094 99.691406 209.265625 99.691406 C 212.039062 99.691406 214.292969 101.945312 214.292969 104.71875 C 214.292969 107.492188 212.039062 109.746094 209.265625 109.746094 Z M 209.265625 175.097656 C 212.039062 175.097656 214.292969 177.351562 214.292969 180.125 C 214.292969 182.898438 212.039062 185.152344 209.265625 185.152344 C 206.496094 185.152344 204.238281 182.898438 204.238281 180.125 C 204.238281 177.351562 206.496094 175.097656 209.265625 175.097656 Z M 185.824219 141.460938 L 165.714844 153.0625 L 145.605469 141.460938 L 145.605469 118.257812 L 165.714844 106.65625 L 185.824219 118.257812 Z M 185.824219 141.460938 " fill-opacity="1" fill-rule="nonzero"/></g><g fill="#000000" fill-opacity="1"><g transform="translate(87.278723, 229.53832)"><g><path d="M 3.578125 -25.0625 L 21.46875 -25.0625 L 21.46875 -21.46875 L 7.15625 -21.46875 L 7.15625 -14.3125 L 21.46875 -14.3125 L 21.46875 0 L 3.578125 0 L 3.578125 -3.578125 L 17.890625 -3.578125 L 17.890625 -10.734375 L 3.578125 -10.734375 Z M 3.578125 -25.0625 "/></g></g></g><g fill="#000000" fill-opacity="1"><g transform="translate(108.753343, 229.53832)"><g><path d="M 7.15625 -25.0625 L 10.734375 -25.0625 L 10.734375 -17.890625 L 17.890625 -17.890625 L 17.890625 -14.3125 L 10.734375 -14.3125 L 10.734375 -3.578125 L 17.890625 -3.578125 L 17.890625 0 L 7.15625 0 L 7.15625 -14.3125 L 3.578125 -14.3125 L 3.578125 -17.890625 L 7.15625 -17.890625 Z M 7.15625 -25.0625 "/></g></g></g><g fill="#000000" fill-opacity="1"><g transform="translate(126.648857, 229.53832)"><g><path d="M 3.578125 -17.890625 L 7.15625 -17.890625 L 7.15625 -13.3125 L 11.734375 -17.890625 L 17.890625 -17.890625 L 17.890625 -14.3125 L 13.3125 -14.3125 L 7.15625 -8.15625 L 7.15625 0 L 3.578125 0 Z M 3.578125 -17.890625 "/></g></g></g><g fill="#000000" fill-opacity="1"><g transform="translate(144.544371, 229.53832)"><g><path d="M 3.578125 -17.890625 L 21.46875 -17.890625 L 21.46875 -7.15625 L 7.15625 -7.15625 L 7.15625 -3.578125 L 21.46875 -3.578125 L 21.46875 0 L 3.578125 0 Z M 7.15625 -14.3125 L 7.15625 -10.734375 L 17.890625 -10.734375 L 17.890625 -14.3125 Z M 7.15625 -14.3125 "/></g></g></g><g fill="#000000" fill-opacity="1"><g transform="translate(166.01899, 229.53832)"><g><path d="M 7.15625 -7.15625 L 7.15625 -3.578125 L 17.890625 -3.578125 L 17.890625 -7.15625 Z M 3.578125 -17.890625 L 21.46875 -17.890625 L 21.46875 0 L 3.578125 0 L 3.578125 -10.734375 L 17.890625 -10.734375 L 17.890625 -14.3125 L 3.578125 -14.3125 Z M 3.578125 -17.890625 "/></g></g></g><g fill="#000000" fill-opacity="1"><g transform="translate(187.49361, 229.53832)"><g><path d="M 3.578125 -17.890625 L 16.890625 -17.890625 L 21.46875 -13.3125 L 21.46875 0 L 17.890625 0 L 17.890625 -11.734375 L 15.3125 -14.3125 L 14.3125 -14.3125 L 14.3125 0 L 10.734375 0 L 10.734375 -14.3125 L 7.15625 -14.3125 L 7.15625 0 L 3.578125 0 Z M 3.578125 -17.890625 "/></g></g></g><g fill="#000000" fill-opacity="1"><g transform="translate(208.96823, 229.53832)"><g><path d="M 3.578125 -25.0625 L 7.15625 -25.0625 L 7.15625 -3.578125 L 21.46875 -3.578125 L 21.46875 0 L 3.578125 0 Z M 3.578125 -25.0625 "/></g></g></g><g fill="#000000" fill-opacity="1"><g transform="translate(230.442849, 229.53832)"><g><path d="M 3.578125 -17.890625 L 10.734375 -17.890625 L 10.734375 -3.578125 L 14.3125 -3.578125 L 14.3125 0 L 7.15625 0 L 7.15625 -14.3125 L 3.578125 -14.3125 Z M 7.15625 -25.0625 L 10.734375 -25.0625 L 10.734375 -21.46875 L 7.15625 -21.46875 Z M 7.15625 -25.0625 "/></g></g></g><g fill="#000000" fill-opacity="1"><g transform="translate(244.75927, 229.53832)"><g><path d="M 3.578125 -17.890625 L 16.890625 -17.890625 L 21.46875 -13.3125 L 21.46875 0 L 17.890625 0 L 17.890625 -11.734375 L 15.3125 -14.3125 L 7.15625 -14.3125 L 7.15625 0 L 3.578125 0 Z M 3.578125 -17.890625 "/></g></g></g><g fill="#000000" fill-opacity="1"><g transform="translate(266.233889, 229.53832)"><g><path d="M 3.578125 -17.890625 L 21.46875 -17.890625 L 21.46875 -7.15625 L 7.15625 -7.15625 L 7.15625 -3.578125 L 21.46875 -3.578125 L 21.46875 0 L 3.578125 0 Z M 7.15625 -14.3125 L 7.15625 -10.734375 L 17.890625 -10.734375 L 17.890625 -14.3125 Z M 7.15625 -14.3125 "/></g></g></g><g clip-path="url(#7aef11c61d)"><g clip-path="url(#c60b036913)"><g clip-path="url(#a087b90de3)"><g clip-path="url(#9ca5105543)"><path fill="#000000" d="M 212.621094 252.257812 L 208.164062 247.800781 C 207.6875 247.324219 206.910156 247.324219 206.433594 247.800781 L 202.335938 251.898438 L 172.664062 251.898438 L 168.566406 247.800781 C 168.089844 247.320312 167.3125 247.324219 166.835938 247.800781 L 162.378906 252.257812 C 161.902344 252.734375 161.902344 253.507812 162.378906 253.988281 L 166.835938 258.441406 C 167.3125 258.921875 168.089844 258.921875 168.566406 258.441406 L 172.664062 254.347656 L 202.335938 254.347656 L 206.433594 258.441406 C 206.910156 258.921875 207.6875 258.921875 208.164062 258.441406 L 212.621094 253.988281 C 213.097656 253.511719 213.097656 252.734375 212.621094 252.257812 Z M 167.699219 255.84375 L 164.976562 253.121094 L 167.699219 250.398438 L 170.421875 253.121094 Z M 207.296875 255.84375 L 204.578125 253.121094 L 207.300781 250.398438 L 210.019531 253.121094 Z M 207.296875 255.84375 " fill-opacity="1" fill-rule="nonzero"/></g></g></g></g></svg>